<svg xmlns="http://www.w3.org/2000/svg" width="163.3" height="30" viewBox="0 0 43.206 7.938"><rect style="fill:#161719;fill-opacity:1;stroke:#161719;stroke-width:.265688;stroke-linecap:butt;stroke-linejoin:round;stroke-miterlimit:4;stroke-dasharray:none;stroke-opacity:1" width="42.933" height="7.925" x=".267" y=".13" ry=".985"/><g style="fill:#fef8ec;fill-opacity:1"><path d="m438.827 186.347-80.213-88.149c-15.872-15.872-41.728-15.893-57.749.128-5.077 5.077-8.533 11.157-10.325 17.643-15.957-12.224-38.976-11.008-53.675 3.691a40.64 40.64 0 0 0-10.347 17.621c-15.957-12.181-38.976-10.987-53.653 3.712-4.971 4.971-8.384 10.901-10.24 17.216l-37.803-37.803c-15.872-15.872-41.728-15.893-57.749.128-15.893 15.872-15.893 41.728 0 57.621L212.31 323.392l-86.144 13.525c-23.275 3.328-40.832 23.552-40.832 47.083 0 17.643 14.357 32 32 32h201.152c31.339 0 60.8-12.203 82.965-34.368l33.557-33.557c22.144-22.123 34.325-51.563 34.325-82.859 0-29.227-10.837-57.237-30.506-78.869zm-18.902 146.645-33.557 33.557c-18.133 18.133-42.24 28.117-67.883 28.117H117.333c-5.888 0-10.667-4.779-10.667-10.667 0-12.971 9.685-24.128 22.677-25.984l106.987-16.811c3.968-.619 7.232-3.413 8.491-7.232 1.237-3.797.235-8-2.603-10.837L82.155 163.072c-7.573-7.573-7.573-19.904.107-27.605a19.436 19.436 0 0 1 13.739-5.675c4.971 0 9.941 1.899 13.739 5.696l106.731 106.731c4.16 4.16 10.923 4.16 15.083 0a10.716 10.716 0 0 0 3.115-7.552c0-2.731-1.045-5.461-3.136-7.552l-43.584-43.584c-7.573-7.573-7.573-19.883.128-27.584 7.552-7.552 19.904-7.552 27.456 0l43.605 43.605c4.16 4.16 10.923 4.16 15.083 0a10.716 10.716 0 0 0 3.115-7.552c0-2.731-1.045-5.461-3.136-7.552l-22.251-22.251c-7.573-7.573-7.573-19.883.128-27.584 7.552-7.552 19.904-7.552 27.456 0l22.357 22.357c.043.021.021.021.021.021l.021.021.021.021.021.021h.021c.021 0 .021.021.021.021 4.181 3.968 10.795 3.883 14.869-.213 4.16-4.16 4.16-10.923 0-15.083l-.917-.917a19.32 19.32 0 0 1-5.696-13.739c0-5.184 2.005-10.048 5.803-13.845 7.595-7.552 19.883-7.531 27.115-.363l79.872 87.787C439.125 218.389 448 241.301 448 265.216c0 25.6-9.963 49.664-28.075 67.776z" style="fill:#fef8ec;fill-opacity:1" transform="matrix(.00902 0 0 .00902 38.61 3.82)"/><path d="M183.381 109.931C167.851 75.563 133.547 53.333 96 53.333c-52.928 0-96 43.072-96 96 0 37.547 22.229 71.851 56.597 87.403 1.429.64 2.923.939 4.395.939 4.053 0 7.936-2.347 9.728-6.272 2.411-5.376.021-11.691-5.333-14.123-26.752-12.096-44.053-38.763-44.053-67.947 0-41.173 33.493-74.667 74.667-74.667 29.184 0 55.851 17.301 67.947 44.053 2.411 5.376 8.747 7.787 14.101 5.333 5.375-2.431 7.764-8.745 5.332-14.121z" style="fill:#fef8ec;fill-opacity:1" transform="matrix(.00902 0 0 .00902 38.61 3.82)"/></g><path style="fill:#fef8ec;fill-opacity:1;stroke:none;stroke-width:.265689;stroke-linecap:butt;stroke-linejoin:round;stroke-miterlimit:4;stroke-dasharray:none;stroke-opacity:1" d="M10.054 2.581c-.288 0-.537.06-.748.183-.21.122-.372.296-.485.523-.111.224-.166.492-.166.802 0 .31.055.58.166.81.113.226.275.4.485.522.21.122.46.183.748.183.2 0 .385-.03.557-.091.174-.061.322-.15.444-.27l-.15-.32a1.524 1.524 0 0 1-.41.25c-.133.05-.279.074-.437.074-.307 0-.545-.1-.714-.299-.166-.202-.25-.488-.25-.86 0-.37.085-.654.254-.85.17-.2.406-.3.71-.3.158 0 .304.026.436.079.136.05.273.131.411.245l.15-.32a1.185 1.185 0 0 0-.444-.27 1.653 1.653 0 0 0-.557-.09zm12.74.033v2.957h.404V3.33l1.694 2.24h.328V2.614h-.403v2.238l-1.699-2.238Zm-4.377.196-.419.145v.523h-.407v.324h.407v1.084c0 .235.06.414.179.535.121.12.29.18.502.18a.985.985 0 0 0 .162-.013c.05-.006.1-.017.15-.034v-.34a1.23 1.23 0 0 1-.113.025.658.658 0 0 1-.108.008.486.486 0 0 1-.182-.033.275.275 0 0 1-.125-.12.525.525 0 0 1-.046-.242v-1.05h.578v-.324h-.578Zm15.22.54v.871h-.867v.307h.867v.869h.308v-.869h.868v-.307h-.868V3.35ZM12.6 3.427a.727.727 0 0 0-.436.141.606.606 0 0 0-.21.287l-.035-.378h-.399a5.341 5.341 0 0 1 .033.59V5.57h.42V4.404c0-.105.02-.203.058-.295a.512.512 0 0 1 .187-.224.56.56 0 0 1 .328-.087c.088 0 .17.013.245.041l.008-.382a.746.746 0 0 0-.2-.029zm1.354 0a.976.976 0 0 0-.52.137.96.96 0 0 0-.353.382 1.24 1.24 0 0 0-.124.569c0 .224.043.418.129.581a.876.876 0 0 0 .369.375 1.2 1.2 0 0 0 .573.128c.15 0 .296-.024.44-.07.144-.05.263-.117.357-.2l-.128-.299a1.036 1.036 0 0 1-.66.237c-.22 0-.385-.064-.499-.191-.106-.122-.16-.305-.167-.544h1.492v-.07c0-.217-.037-.4-.112-.553a.803.803 0 0 0-.312-.357.912.912 0 0 0-.485-.125Zm2.196 0a.876.876 0 0 0-.486.137.91.91 0 0 0-.323.386 1.324 1.324 0 0 0-.117.573c0 .219.038.41.113.573.077.161.185.286.323.375a.926.926 0 0 0 .49.128.82.82 0 0 0 .474-.133.654.654 0 0 0 .22-.257v.36h.415V3.479h-.415v.34a.632.632 0 0 0-.22-.253.803.803 0 0 0-.474-.137Zm4.107 0a.974.974 0 0 0-.519.137.96.96 0 0 0-.353.382 1.239 1.239 0 0 0-.124.569c0 .224.043.418.129.581a.876.876 0 0 0 .369.375 1.2 1.2 0 0 0 .573.128c.15 0 .296-.024.44-.07.144-.05.263-.117.357-.2l-.128-.299a1.036 1.036 0 0 1-.66.237c-.22 0-.385-.064-.499-.191-.106-.122-.161-.305-.168-.544h1.493v-.07c0-.217-.038-.4-.112-.553a.802.802 0 0 0-.312-.357.914.914 0 0 0-.486-.125Zm6.491 0a.976.976 0 0 0-.52.137.96.96 0 0 0-.352.382 1.239 1.239 0 0 0-.125.569c0 .224.043.418.13.581a.876.876 0 0 0 .369.375 1.2 1.2 0 0 0 .573.128c.15 0 .296-.024.44-.07.144-.05.263-.117.357-.2l-.129-.299a1.036 1.036 0 0 1-.66.237c-.219 0-.385-.064-.498-.191-.107-.122-.161-.305-.168-.544h1.493v-.07c0-.217-.038-.4-.112-.553a.803.803 0 0 0-.312-.357.912.912 0 0 0-.486-.125Zm1.134.05.797 2.093h.382l.555-1.509.562 1.509h.382l.798-2.093h-.412l-.575 1.6-.575-1.6h-.332l-.579 1.6-.567-1.6Zm-13.92.262c.177 0 .311.06.402.178.07.091.112.213.127.365h-1.106a.724.724 0 0 1 .14-.344.525.525 0 0 1 .437-.2zm6.303 0c.178 0 .312.06.404.178.07.091.111.213.126.365H19.69a.724.724 0 0 1 .14-.344.524.524 0 0 1 .436-.2Zm6.492 0c.177 0 .31.06.402.178.07.091.112.213.127.365H26.18a.724.724 0 0 1 .14-.344.525.525 0 0 1 .437-.2zm-10.507.025c.188 0 .333.064.436.194.105.13.158.316.158.557 0 .24-.053.426-.158.557a.522.522 0 0 1-.436.195.557.557 0 0 1-.448-.191c-.106-.13-.159-.315-.159-.553 0-.238.053-.423.159-.556a.542.542 0 0 1 .448-.203z"/></svg>