<?xml version="1.0" encoding="UTF-8" standalone="no"?>
<svg
   xmlns:dc="http://purl.org/dc/elements/1.1/"
   xmlns:cc="http://creativecommons.org/ns#"
   xmlns:rdf="http://www.w3.org/1999/02/22-rdf-syntax-ns#"
   xmlns:svg="http://www.w3.org/2000/svg"
   xmlns="http://www.w3.org/2000/svg"
   xmlns:sodipodi="http://sodipodi.sourceforge.net/DTD/sodipodi-0.dtd"
   xmlns:inkscape="http://www.inkscape.org/namespaces/inkscape"
   width="163.3"
   height="30"
   viewBox="0 0 43.206457 7.9375002"
   version="1.1"
   id="svg3457"
   inkscape:version="1.0.2 (e86c870879, 2021-01-15, custom)"
   sodipodi:docname="create-new-btn.svg">
  <defs
     id="defs3451" />
  <sodipodi:namedview
     id="base"
     pagecolor="#ffffff"
     bordercolor="#666666"
     borderopacity="1.0"
     inkscape:pageopacity="0.0"
     inkscape:pageshadow="2"
     inkscape:zoom="3.959798"
     inkscape:cx="97.707108"
     inkscape:cy="30.221617"
     inkscape:document-units="px"
     inkscape:current-layer="layer1"
     inkscape:document-rotation="0"
     showgrid="false"
     units="px"
     inkscape:window-width="1366"
     inkscape:window-height="705"
     inkscape:window-x="1016"
     inkscape:window-y="-8"
     inkscape:window-maximized="1"
     inkscape:snap-global="false" />
  <metadata
     id="metadata3454">
    <rdf:RDF>
      <cc:Work
         rdf:about="">
        <dc:format>image/svg+xml</dc:format>
        <dc:type
           rdf:resource="http://purl.org/dc/dcmitype/StillImage" />
        <dc:title />
      </cc:Work>
    </rdf:RDF>
  </metadata>
  <g
     inkscape:label="Layer 1"
     inkscape:groupmode="layer"
     id="layer1">
    <g
       id="g5138"
       transform="translate(0,0.46772166)">
      <rect
         style="fill:#161719;fill-opacity:1;stroke:#161719;stroke-width:0.265688;stroke-linecap:butt;stroke-linejoin:round;stroke-miterlimit:4;stroke-dasharray:none;stroke-opacity:1"
         id="rect2968"
         width="42.932884"
         height="7.9249282"
         x="0.2671929"
         y="-0.33737206"
         ry="0.98454088" />
      <text
         xml:space="preserve"
         style="font-weight:600;font-size:4.15274px;line-height:1.25;font-family:Mulish;-inkscape-font-specification:'Mulish Semi-Bold';word-spacing:0px;fill:#fef8ec;fill-opacity:1;stroke-width:0.230708"
         x="8.4095879"
         y="5.1034675"
         id="text2972"><tspan
           sodipodi:role="line"
           id="tspan2970"
           x="8.4095879"
           y="5.1034675"
           style="fill:#fef8ec;fill-opacity:1;stroke-width:0.230708">Create New +</tspan></text>
      <g
         id="g3845"
         transform="matrix(0.00901989,0,0,0.00901989,38.610598,3.3517231)"
         style="fill:#fef8ec;fill-opacity:1">
        <g
           id="g3779"
           style="fill:#fef8ec;fill-opacity:1">
          <g
             id="g3777"
             style="fill:#fef8ec;fill-opacity:1">
            <path
               d="M 438.827,186.347 358.614,98.198 c -15.872,-15.872 -41.728,-15.893 -57.749,0.128 -5.077,5.077 -8.533,11.157 -10.325,17.643 -15.957,-12.224 -38.976,-11.008 -53.675,3.691 -5.056,5.077 -8.512,11.157 -10.347,17.621 -15.957,-12.181 -38.976,-10.987 -53.653,3.712 -4.971,4.971 -8.384,10.901 -10.24,17.216 l -37.803,-37.803 c -15.872,-15.872 -41.728,-15.893 -57.749,0.128 -15.893,15.872 -15.893,41.728 0,57.621 l 145.237,145.237 -86.144,13.525 c -23.275,3.328 -40.832,23.552 -40.832,47.083 0,17.643 14.357,32 32,32 h 201.152 c 31.339,0 60.8,-12.203 82.965,-34.368 l 33.557,-33.557 c 22.144,-22.123 34.325,-51.563 34.325,-82.859 0,-29.227 -10.837,-57.237 -30.506,-78.869 z m -18.902,146.645 -33.557,33.557 c -18.133,18.133 -42.24,28.117 -67.883,28.117 H 117.333 c -5.888,0 -10.667,-4.779 -10.667,-10.667 0,-12.971 9.685,-24.128 22.677,-25.984 L 236.33,341.204 c 3.968,-0.619 7.232,-3.413 8.491,-7.232 1.237,-3.797 0.235,-8 -2.603,-10.837 L 82.155,163.072 c -7.573,-7.573 -7.573,-19.904 0.107,-27.605 3.797,-3.776 8.768,-5.675 13.739,-5.675 4.971,0 9.941,1.899 13.739,5.696 l 106.731,106.731 c 4.16,4.16 10.923,4.16 15.083,0 2.069,-2.091 3.115,-4.821 3.115,-7.552 0,-2.731 -1.045,-5.461 -3.136,-7.552 l -43.584,-43.584 c -7.573,-7.573 -7.573,-19.883 0.128,-27.584 7.552,-7.552 19.904,-7.552 27.456,0 l 43.605,43.605 c 4.16,4.16 10.923,4.16 15.083,0 2.069,-2.091 3.115,-4.821 3.115,-7.552 0,-2.731 -1.045,-5.461 -3.136,-7.552 l -22.251,-22.251 c -7.573,-7.573 -7.573,-19.883 0.128,-27.584 7.552,-7.552 19.904,-7.552 27.456,0 l 22.357,22.357 c 0.043,0.021 0.021,0.021 0.021,0.021 l 0.021,0.021 c 0.021,0.021 0.021,0.021 0.021,0.021 0.021,0.021 0.021,0.021 0.021,0.021 h 0.021 c 0.021,0 0.021,0.021 0.021,0.021 4.181,3.968 10.795,3.883 14.869,-0.213 4.16,-4.16 4.16,-10.923 0,-15.083 l -0.917,-0.917 c -3.669,-3.669 -5.696,-8.555 -5.696,-13.739 0,-5.184 2.005,-10.048 5.803,-13.845 7.595,-7.552 19.883,-7.531 27.115,-0.363 l 79.872,87.787 c 16.063,17.687 24.938,40.599 24.938,64.514 0,25.6 -9.963,49.664 -28.075,67.776 z"
               id="path3775"
               style="fill:#fef8ec;fill-opacity:1" />
          </g>
        </g>
        <g
           id="g3785"
           style="fill:#fef8ec;fill-opacity:1">
          <g
             id="g3783"
             style="fill:#fef8ec;fill-opacity:1">
            <path
               d="M 183.381,109.931 C 167.851,75.563 133.547,53.333 96,53.333 c -52.928,0 -96,43.072 -96,96 0,37.547 22.229,71.851 56.597,87.403 1.429,0.64 2.923,0.939 4.395,0.939 4.053,0 7.936,-2.347 9.728,-6.272 2.411,-5.376 0.021,-11.691 -5.333,-14.123 -26.752,-12.096 -44.053,-38.763 -44.053,-67.947 0,-41.173 33.493,-74.667 74.667,-74.667 29.184,0 55.851,17.301 67.947,44.053 2.411,5.376 8.747,7.787 14.101,5.333 5.375,-2.431 7.764,-8.745 5.332,-14.121 z"
               id="path3781"
               style="fill:#fef8ec;fill-opacity:1" />
          </g>
        </g>
        <g
           id="g3787"
           style="fill:#fef8ec;fill-opacity:1" />
        <g
           id="g3789"
           style="fill:#fef8ec;fill-opacity:1" />
        <g
           id="g3791"
           style="fill:#fef8ec;fill-opacity:1" />
        <g
           id="g3793"
           style="fill:#fef8ec;fill-opacity:1" />
        <g
           id="g3795"
           style="fill:#fef8ec;fill-opacity:1" />
        <g
           id="g3797"
           style="fill:#fef8ec;fill-opacity:1" />
        <g
           id="g3799"
           style="fill:#fef8ec;fill-opacity:1" />
        <g
           id="g3801"
           style="fill:#fef8ec;fill-opacity:1" />
        <g
           id="g3803"
           style="fill:#fef8ec;fill-opacity:1" />
        <g
           id="g3805"
           style="fill:#fef8ec;fill-opacity:1" />
        <g
           id="g3807"
           style="fill:#fef8ec;fill-opacity:1" />
        <g
           id="g3809"
           style="fill:#fef8ec;fill-opacity:1" />
        <g
           id="g3811"
           style="fill:#fef8ec;fill-opacity:1" />
        <g
           id="g3813"
           style="fill:#fef8ec;fill-opacity:1" />
        <g
           id="g3815"
           style="fill:#fef8ec;fill-opacity:1" />
      </g>
    </g>
  </g>
</svg>
