<?xml version="1.0" encoding="UTF-8" standalone="no"?>
<svg
   xmlns:dc="http://purl.org/dc/elements/1.1/"
   xmlns:cc="http://creativecommons.org/ns#"
   xmlns:rdf="http://www.w3.org/1999/02/22-rdf-syntax-ns#"
   xmlns:svg="http://www.w3.org/2000/svg"
   xmlns="http://www.w3.org/2000/svg"
   xmlns:sodipodi="http://sodipodi.sourceforge.net/DTD/sodipodi-0.dtd"
   xmlns:inkscape="http://www.inkscape.org/namespaces/inkscape"
   width="35"
   height="35"
   viewBox="0 0 9.2604164 9.260417"
   version="1.1"
   id="svg1331"
   inkscape:version="1.0.2 (e86c870879, 2021-01-15, custom)"
   sodipodi:docname="exit_door.svg">
  <defs
     id="defs1325" />
  <sodipodi:namedview
     id="base"
     pagecolor="#ffffff"
     bordercolor="#666666"
     borderopacity="1.0"
     inkscape:pageopacity="0.0"
     inkscape:pageshadow="2"
     inkscape:zoom="11.2"
     inkscape:cx="17.750564"
     inkscape:cy="17.702468"
     inkscape:document-units="px"
     inkscape:current-layer="layer1"
     inkscape:document-rotation="0"
     showgrid="false"
     units="px"
     inkscape:window-width="1267"
     inkscape:window-height="728"
     inkscape:window-x="52"
     inkscape:window-y="0"
     inkscape:window-maximized="0" />
  <metadata
     id="metadata1328">
    <rdf:RDF>
      <cc:Work
         rdf:about="">
        <dc:format>image/svg+xml</dc:format>
        <dc:type
           rdf:resource="http://purl.org/dc/dcmitype/StillImage" />
        <dc:title></dc:title>
      </cc:Work>
    </rdf:RDF>
  </metadata>
  <g
     inkscape:label="Layer 1"
     inkscape:groupmode="layer"
     id="layer1">
    <g
       id="g1309"
       transform="matrix(0.7777779,0,0,0.7777779,84.688113,-977.50195)">
      <g
         id="g1305"
         transform="matrix(-0.02325564,0,0,0.02325564,-96.978127,1256.8181)"
         style="fill:#fff2d7;fill-opacity:1">
        <g
           id="g1272"
           style="fill:#fff2d7;fill-opacity:1">
          <g
             id="g1270"
             style="fill:#fff2d7;fill-opacity:1">
            <g
               id="g1268"
               style="fill:#fff2d7;fill-opacity:1">
              <path
                 d="m 510.371,226.513 c -1.088,-2.603 -2.645,-4.971 -4.629,-6.955 l -63.979,-63.979 c -8.341,-8.32 -21.824,-8.32 -30.165,0 -8.341,8.341 -8.341,21.845 0,30.165 l 27.584,27.584 H 320.013 c -11.797,0 -21.333,9.557 -21.333,21.333 0,11.776 9.536,21.333 21.333,21.333 h 119.168 l -27.584,27.584 c -8.341,8.341 -8.341,21.845 0,30.165 4.16,4.181 9.621,6.251 15.083,6.251 5.462,0 10.923,-2.069 15.083,-6.251 l 63.979,-63.979 c 1.984,-1.963 3.541,-4.331 4.629,-6.955 2.154,-5.203 2.154,-11.091 0,-16.296 z"
                 id="path1264"
                 style="fill:#fff2d7;fill-opacity:1" />
              <path
                 d="m 362.68,298.667 c -11.797,0 -21.333,9.557 -21.333,21.333 V 426.667 H 256.014 V 85.333 c 0,-9.408 -6.187,-17.728 -15.211,-20.437 L 166.712,42.667 h 174.635 v 106.667 c 0,11.776 9.536,21.333 21.333,21.333 11.797,0 21.333,-9.557 21.333,-21.333 v -128 C 384.013,9.557 374.477,0 362.68,0 H 21.347 C 20.579,0 19.896,0.32 19.15,0.405 18.147,0.512 17.23,0.682 16.27,0.917 14.03,1.493 12.003,2.368 10.105,3.562 9.636,3.861 9.06,3.882 8.612,4.223 8.44,4.352 8.376,4.587 8.205,4.715 5.88,6.549 3.939,8.789 2.531,11.456 c -0.299,0.576 -0.363,1.195 -0.597,1.792 -0.683,1.621 -1.429,3.2 -1.685,4.992 -0.107,0.64 0.085,1.237 0.064,1.856 -0.021,0.427 -0.299,0.811 -0.299,1.237 V 448 c 0,10.176 7.189,18.923 17.152,20.907 l 213.333,42.667 c 1.387,0.299 2.795,0.427 4.181,0.427 4.885,0 9.685,-1.685 13.525,-4.843 4.928,-4.053 7.808,-10.091 7.808,-16.491 V 469.334 H 362.68 c 11.797,0 21.333,-9.557 21.333,-21.333 V 320 c 0,-11.776 -9.536,-21.333 -21.333,-21.333 z"
                 id="path1266"
                 style="fill:#fff2d7;fill-opacity:1" />
            </g>
          </g>
        </g>
        <g
           id="g1274"
           style="fill:#fff2d7;fill-opacity:1" />
        <g
           id="g1276"
           style="fill:#fff2d7;fill-opacity:1" />
        <g
           id="g1279"
           style="fill:#fff2d7;fill-opacity:1" />
        <g
           id="g1281"
           style="fill:#fff2d7;fill-opacity:1" />
        <g
           id="g1283"
           style="fill:#fff2d7;fill-opacity:1" />
        <g
           id="g1285"
           style="fill:#fff2d7;fill-opacity:1" />
        <g
           id="g1287"
           style="fill:#fff2d7;fill-opacity:1" />
        <g
           id="g1289"
           style="fill:#fff2d7;fill-opacity:1" />
        <g
           id="g1291"
           style="fill:#fff2d7;fill-opacity:1" />
        <g
           id="g1293"
           style="fill:#fff2d7;fill-opacity:1" />
        <g
           id="g1295"
           style="fill:#fff2d7;fill-opacity:1" />
        <g
           id="g1297"
           style="fill:#fff2d7;fill-opacity:1" />
        <g
           id="g1299"
           style="fill:#fff2d7;fill-opacity:1" />
        <g
           id="g1301"
           style="fill:#fff2d7;fill-opacity:1" />
        <g
           id="g1303"
           style="fill:#fff2d7;fill-opacity:1" />
      </g>
      <ellipse
         style="fill:#161719;fill-opacity:1;stroke:none;stroke-width:0.140337;stroke-linejoin:round;stroke-opacity:1"
         id="ellipse1307"
         cx="-101.68187"
         cy="1263.83"
         rx="0.32515258"
         ry="0.52916664" />
    </g>
  </g>
</svg>
