<?xml version="1.0" encoding="UTF-8" standalone="no"?>
<svg
   xmlns:dc="http://purl.org/dc/elements/1.1/"
   xmlns:cc="http://creativecommons.org/ns#"
   xmlns:rdf="http://www.w3.org/1999/02/22-rdf-syntax-ns#"
   xmlns:svg="http://www.w3.org/2000/svg"
   xmlns="http://www.w3.org/2000/svg"
   xmlns:sodipodi="http://sodipodi.sourceforge.net/DTD/sodipodi-0.dtd"
   xmlns:inkscape="http://www.inkscape.org/namespaces/inkscape"
   width="35"
   height="35"
   viewBox="0 0 9.2604164 9.260417"
   version="1.1"
   id="svg1331"
   inkscape:version="1.0.2 (e86c870879, 2021-01-15, custom)"
   sodipodi:docname="gears.svg">
  <defs
     id="defs1325" />
  <sodipodi:namedview
     id="base"
     pagecolor="#ffffff"
     bordercolor="#666666"
     borderopacity="1.0"
     inkscape:pageopacity="0.0"
     inkscape:pageshadow="2"
     inkscape:zoom="11.2"
     inkscape:cx="17.750564"
     inkscape:cy="17.702468"
     inkscape:document-units="px"
     inkscape:current-layer="layer1"
     inkscape:document-rotation="0"
     showgrid="false"
     units="px"
     inkscape:window-width="1267"
     inkscape:window-height="728"
     inkscape:window-x="52"
     inkscape:window-y="0"
     inkscape:window-maximized="0" />
  <metadata
     id="metadata1328">
    <rdf:RDF>
      <cc:Work
         rdf:about="">
        <dc:format>image/svg+xml</dc:format>
        <dc:type
           rdf:resource="http://purl.org/dc/dcmitype/StillImage" />
        <dc:title></dc:title>
      </cc:Work>
    </rdf:RDF>
  </metadata>
  <g
     inkscape:label="Layer 1"
     inkscape:groupmode="layer"
     id="layer1">
    <g
       id="g1262"
       transform="matrix(0.01929253,0,0,0.01929253,8.3127033e-7,0.02363542)"
       style="fill:#fff2d7;fill-opacity:1">
      <g
         id="g1211"
         style="fill:#fff2d7;fill-opacity:1">
        <g
           id="g1209"
           style="fill:#fff2d7;fill-opacity:1">
          <path
             d="m 296,280 h -8.8 c -3.31,0.006 -6.271,-2.059 -7.408,-5.168 -0.976,-2.56 -2.024,-5.064 -3.152,-7.544 -1.402,-3.016 -0.762,-6.587 1.6,-8.928 l 6.272,-6.28 c 9.311,-9.393 9.294,-24.541 -0.04,-33.912 L 261.864,195.56 c -9.383,-9.328 -24.537,-9.328 -33.92,0 l -6.272,6.264 c -2.346,2.353 -5.911,2.992 -8.928,1.6 -2.48,-1.128 -4.984,-2.176 -7.552,-3.2 -3.125,-1.129 -5.204,-4.101 -5.192,-7.424 V 184 c 0,-13.255 -10.745,-24 -24,-24 h -32 c -13.255,0 -24,10.745 -24,24 v 8.8 c 0.006,3.31 -2.059,6.271 -5.168,7.408 -2.56,0.976 -5.064,2.024 -7.544,3.152 -3.017,1.395 -6.583,0.756 -8.928,-1.6 l -6.28,-6.272 c -9.382,-9.322 -24.53,-9.322 -33.912,0 l -22.608,22.68 c -9.328,9.383 -9.328,24.537 0,33.92 l 6.264,6.272 c 2.362,2.341 3.002,5.912 1.6,8.928 -1.128,2.48 -2.176,4.984 -3.16,7.552 -1.145,3.127 -4.134,5.194 -7.464,5.16 H 24 C 10.745,280 0,290.745 0,304 v 32 c 0,13.255 10.745,24 24,24 h 8.8 c 3.31,-0.006 6.271,2.059 7.408,5.168 0.976,2.56 2.024,5.064 3.152,7.544 1.402,3.016 0.762,6.587 -1.6,8.928 l -6.272,6.28 c -9.322,9.382 -9.322,24.53 0,33.912 l 22.608,22.608 c 9.383,9.328 24.537,9.328 33.92,0 l 6.272,-6.264 c 2.346,-2.353 5.911,-2.992 8.928,-1.6 2.48,1.128 4.984,2.176 7.552,3.2 3.141,1.116 5.238,4.091 5.232,7.424 v 8.8 c 0,13.255 10.745,24 24,24 h 32 c 13.255,0 24,-10.745 24,-24 v -8.8 c -0.006,-3.31 2.059,-6.271 5.168,-7.408 2.56,-0.976 5.064,-2.024 7.544,-3.152 3.017,-1.395 6.583,-0.756 8.928,1.6 l 6.28,6.272 c 9.395,9.307 24.539,9.289 33.912,-0.04 l 22.608,-22.608 c 9.328,-9.383 9.328,-24.537 0,-33.92 l -6.264,-6.272 c -2.362,-2.341 -3.002,-5.912 -1.6,-8.928 1.128,-2.48 2.176,-4.984 3.2,-7.552 1.129,-3.125 4.101,-5.204 7.424,-5.192 h 8.8 c 13.255,0 24,-10.745 24,-24 v -32 c 0,-13.255 -10.745,-24 -24,-24 z m 8,56 c 0,4.418 -3.582,8 -8,8 h -8.8 c -9.945,0.037 -18.845,6.184 -22.4,15.472 -0.848,2.24 -1.765,4.445 -2.752,6.616 -4.113,9.08 -2.205,19.756 4.8,26.848 l 6.256,6.264 c 3.126,3.122 3.129,8.188 0.006,11.314 -0.002,0.002 -0.004,0.004 -0.006,0.006 l -22.608,22.608 c -3.124,3.123 -8.188,3.123 -11.312,0 l -6.272,-6.264 c -7.089,-7.011 -17.769,-8.92 -26.848,-4.8 -2.168,0.984 -4.376,1.904 -6.6,2.752 C 190.183,428.37 184.04,437.262 184,447.2 v 8.8 c 0,4.418 -3.582,8 -8,8 h -32 c -4.418,0 -8,-3.582 -8,-8 v -8.8 c -0.037,-9.945 -6.184,-18.845 -15.472,-22.4 -2.24,-0.848 -4.445,-1.765 -6.616,-2.752 -9.08,-4.111 -19.755,-2.202 -26.848,4.8 l -6.264,6.256 c -3.122,3.126 -8.188,3.129 -11.314,0.006 -0.002,-0.002 -0.004,-0.004 -0.006,-0.006 L 46.872,410.52 c -3.123,-3.124 -3.123,-8.188 0,-11.312 l 6.264,-6.272 c 7.005,-7.092 8.913,-17.768 4.8,-26.848 -0.984,-2.168 -1.904,-4.376 -2.752,-6.6 C 51.638,350.197 42.744,344.044 32.8,344 H 24 c -4.418,0 -8,-3.582 -8,-8 v -32 c 0,-4.418 3.582,-8 8,-8 h 8.8 c 9.945,-0.037 18.845,-6.184 22.4,-15.472 0.848,-2.24 1.765,-4.445 2.752,-6.616 4.113,-9.08 2.204,-19.756 -4.8,-26.848 L 46.864,240.8 c -3.126,-3.122 -3.129,-8.188 -0.006,-11.314 0.002,-0.002 0.004,-0.004 0.006,-0.006 l 22.608,-22.608 c 3.124,-3.123 8.188,-3.123 11.312,0 l 6.272,6.264 c 7.089,7.011 17.769,8.92 26.848,4.8 2.168,-0.984 4.376,-1.904 6.6,-2.752 9.294,-3.543 15.451,-12.438 15.496,-22.384 V 184 c 0,-4.418 3.582,-8 8,-8 h 32 c 4.418,0 8,3.582 8,8 v 8.8 c 0.037,9.945 6.184,18.845 15.472,22.4 2.24,0.848 4.445,1.765 6.616,2.752 9.079,4.12 19.759,2.211 26.848,-4.8 l 6.264,-6.256 c 3.136,-3.102 8.184,-3.102 11.32,0 l 22.608,22.608 c 3.123,3.124 3.123,8.188 0,11.312 l -6.264,6.272 c -7.004,7.092 -8.913,17.768 -4.8,26.848 0.984,2.168 1.904,4.376 2.752,6.6 3.554,9.281 12.446,15.424 22.384,15.464 h 8.8 c 4.418,0 8,3.582 8,8 z"
             id="path1206"
             style="fill:#fff2d7;fill-opacity:1" />
        </g>
      </g>
      <g
         id="g1217"
         style="fill:#fff2d7;fill-opacity:1">
        <g
           id="g1215"
           style="fill:#fff2d7;fill-opacity:1">
          <path
             d="m 231.84,316.8 c -0.08,-1.92 -0.216,-3.832 -0.448,-5.736 -0.256,-2.048 -0.56,-4.08 -0.984,-6.072 -0.28,-1.304 -0.648,-2.592 -1,-3.888 -0.448,-1.648 -0.952,-3.272 -1.512,-4.872 -0.392,-1.112 -0.8,-2.216 -1.216,-3.312 -1.03,-2.562 -2.208,-5.063 -3.528,-7.488 -0.104,-0.184 -0.168,-0.384 -0.272,-0.568 -2.081,-3.704 -4.491,-7.215 -7.2,-10.488 -0.232,-0.288 -0.496,-0.56 -0.736,-0.84 -1.104,-1.304 -2.24,-2.568 -3.432,-3.776 -0.624,-0.648 -1.28,-1.256 -1.936,-1.88 -0.8,-0.744 -1.6,-1.48 -2.4,-2.184 -0.971,-0.843 -1.96,-1.659 -2.968,-2.448 l -1.312,-0.976 C 190.517,253 175.466,247.992 160,248 c -0.8,0 -1.6,0.12 -2.4,0.152 -1.704,0.048 -3.416,0.144 -5.136,0.32 -0.904,0.096 -1.816,0.2 -2.72,0.328 -2.608,0.343 -5.196,0.827 -7.752,1.448 -38.521,9.954 -61.679,49.252 -51.725,87.773 6.56,25.384 26.392,45.2 51.781,51.739 0.128,0 0.264,0.04 0.4,0.072 2.763,0.689 5.562,1.224 8.384,1.6 1.864,0.232 3.728,0.28 5.6,0.368 1.248,0.064 2.4,0.248 3.704,0.248 2.28,0 4.648,-0.152 7.064,-0.392 0.256,0 0.512,-0.072 0.8,-0.104 1.944,-0.216 3.912,-0.504 5.92,-0.904 0.8,-0.152 1.544,-0.352 2.312,-0.528 1.408,-0.328 2.808,-0.672 4.248,-1.096 1.12,-0.336 2.208,-0.728 3.304,-1.112 1.096,-0.384 2.232,-0.8 3.368,-1.232 1.136,-0.432 2.088,-0.928 3.12,-1.408 1.344,-0.616 2.68,-1.224 4,-1.944 h 0.048 c 7.466,-3.997 14.362,-8.977 20.504,-14.808 1.659,-1.548 3.102,-3.314 4.288,-5.248 6.244,-10.01 10.346,-21.205 12.048,-32.88 0.224,-1.544 0.424,-3.088 0.544,-4.664 0.112,-1.448 0.192,-2.888 0.224,-4.328 0,-0.456 0.064,-0.888 0.064,-1.344 0.008,-1.128 -0.104,-2.168 -0.152,-3.256 z m -15.944,5.24 c 0,0.664 -0.056,1.328 -0.096,1.984 -0.144,1.936 -0.392,3.872 -0.72,5.816 -2.99,16.633 -13.317,31.033 -28.112,39.2 -0.992,0.52 -1.968,1.008 -2.944,1.456 l -0.664,0.32 c -4.648,2.11 -9.554,3.595 -14.592,4.416 -0.352,0.056 -0.712,0.12 -1.072,0.168 -1,0.144 -1.984,0.264 -2.96,0.352 -1.288,0.112 -2.584,0.176 -3.904,0.2 -0.56,0 -1.112,0 -1.672,0 -1.893,-0.022 -3.783,-0.139 -5.664,-0.352 l -0.96,-0.112 c -2.2,-0.288 -4.382,-0.699 -6.536,-1.232 -29.962,-7.669 -48.034,-38.175 -40.366,-68.137 5.067,-19.798 20.517,-35.264 40.31,-40.351 v -0.008 c 4.596,-1.159 9.316,-1.751 14.056,-1.76 2.287,0.013 4.572,0.168 6.84,0.464 0.608,0.072 1.208,0.184 1.808,0.272 1.728,0.272 3.44,0.616 5.128,1.048 0.552,0.144 1.104,0.272 1.648,0.424 4.254,1.228 8.349,2.952 12.2,5.136 0.616,0.36 1.216,0.736 1.824,1.112 1.264,0.8 2.488,1.6 3.696,2.512 0.648,0.472 1.304,0.936 1.928,1.44 1.57,1.254 3.073,2.589 4.504,4 0.568,0.576 1.088,1.208 1.64,1.808 0.92,1 1.816,2.024 2.672,3.104 0.592,0.744 1.16,1.512 1.72,2.288 0.8,1.152 1.6,2.352 2.32,3.568 0.4,0.664 0.8,1.312 1.208,1.992 1.032,1.899 1.951,3.857 2.752,5.864 0.32,0.8 0.592,1.6 0.88,2.4 0.52,1.472 0.968,2.96 1.36,4.464 0.2,0.8 0.424,1.512 0.592,2.288 0.467,2.162 0.806,4.35 1.016,6.552 0.048,0.584 0.048,1.176 0.088,1.76 0.112,1.84 0.144,3.688 0.072,5.544 z"
             id="path1213"
             style="fill:#fff2d7;fill-opacity:1" />
        </g>
      </g>
      <g
         id="g1223"
         style="fill:#fff2d7;fill-opacity:1">
        <g
           id="g1221"
           style="fill:#fff2d7;fill-opacity:1">
          <path
             d="m 456,168 h -25.16 c -3.355,0.034 -6.356,-2.079 -7.456,-5.248 -2.481,-7.431 -5.483,-14.679 -8.984,-21.688 -1.486,-3.027 -0.867,-6.666 1.536,-9.032 l 17.84,-17.864 c 9.364,-9.371 9.364,-24.557 0,-33.928 L 399.76,46.28 c -9.371,-9.364 -24.557,-9.364 -33.928,0 L 348,64.104 c -2.363,2.402 -5.997,3.024 -9.024,1.544 -7.01,-3.519 -14.26,-6.537 -21.696,-9.032 -3.182,-1.089 -5.31,-4.093 -5.28,-7.456 V 24 C 312,10.745 301.255,0 288,0 h -48 c -13.255,0 -24,10.745 -24,24 v 25.16 c 0.034,3.355 -2.078,6.356 -5.248,7.456 -7.432,2.494 -14.68,5.51 -21.688,9.024 -3.027,1.491 -6.668,0.872 -9.032,-1.536 l -17.864,-17.84 c -9.382,-9.337 -24.546,-9.337 -33.928,0 L 94.288,80.216 c -9.369,9.372 -9.369,24.564 0,33.936 l 26.232,26.28 c 3.173,3.074 8.238,2.994 11.312,-0.18 2.999,-3.096 3.006,-8.012 0.016,-11.116 L 105.6,102.864 c -3.123,-3.124 -3.123,-8.188 0,-11.312 L 139.552,57.6 c 3.124,-3.123 8.188,-3.123 11.312,0 l 17.872,17.84 c 7.231,7.274 18.311,9.092 27.488,4.512 6.337,-3.173 12.889,-5.897 19.608,-8.152 C 225.53,68.517 232.042,59.399 232,49.16 V 24 c 0,-4.418 3.582,-8 8,-8 h 48 c 4.418,0 8,3.582 8,8 v 25.16 c -0.041,10.237 6.471,19.352 16.168,22.632 6.722,2.256 13.277,4.982 19.616,8.16 9.179,4.556 20.244,2.736 27.48,-4.52 L 377.136,57.6 c 3.124,-3.123 8.188,-3.123 11.312,0 L 422.4,91.56 c 3.118,3.123 3.118,8.181 0,11.304 l -17.84,17.872 c -7.267,7.235 -9.084,18.31 -4.512,27.488 3.173,6.337 5.897,12.889 8.152,19.608 3.281,9.7 12.4,16.212 22.64,16.168 H 456 c 4.418,0 8,3.582 8,8 v 48 c 0,4.418 -3.582,8 -8,8 h -25.16 c -10.237,-0.041 -19.352,6.471 -22.632,16.168 -2.255,6.722 -4.982,13.277 -8.16,19.616 -4.564,9.178 -2.743,20.247 4.52,27.48 l 17.84,17.872 c 3.123,3.124 3.123,8.188 0,11.312 L 388.44,374.4 c -3.123,3.118 -8.181,3.118 -11.304,0 l -26.288,-26.232 c -3.074,-3.174 -8.139,-3.254 -11.312,-0.18 -3.174,3.074 -3.254,8.139 -0.18,11.312 0.064,0.066 0.13,0.132 0.196,0.196 l 26.28,26.232 c 9.371,9.364 24.557,9.364 33.928,0 l 33.952,-33.944 c 9.369,-9.372 9.369,-24.564 0,-33.936 L 415.896,300 c -2.4,-2.364 -3.021,-5.997 -1.544,-9.024 3.519,-7.01 6.537,-14.26 9.032,-21.696 1.089,-3.182 4.093,-5.31 7.456,-5.28 H 456 c 13.255,0 24,-10.745 24,-24 v -48 c 0,-13.255 -10.745,-24 -24,-24 z"
             id="path1219"
             style="fill:#fff2d7;fill-opacity:1" />
        </g>
      </g>
      <g
         id="g1229"
         style="fill:#fff2d7;fill-opacity:1">
        <g
           id="g1227"
           style="fill:#fff2d7;fill-opacity:1">
          <path
             d="m 337.536,142.464 c -40.638,-40.553 -106.434,-40.553 -147.072,0 -3.069,3.178 -2.981,8.243 0.197,11.312 3.1,2.994 8.015,2.994 11.115,0 34.135,-34.596 89.852,-34.969 124.448,-0.834 34.596,34.135 34.969,89.852 0.834,124.448 -0.276,0.28 -0.554,0.558 -0.834,0.834 -3.178,3.07 -3.266,8.134 -0.196,11.312 3.07,3.178 8.134,3.266 11.312,0.196 0.066,-0.064 0.132,-0.13 0.196,-0.196 40.553,-40.638 40.553,-106.434 0,-147.072 z"
             id="path1225"
             style="fill:#fff2d7;fill-opacity:1" />
        </g>
      </g>
      <g
         id="g1231"
         style="fill:#fff2d7;fill-opacity:1" />
      <g
         id="g1233"
         style="fill:#fff2d7;fill-opacity:1" />
      <g
         id="g1235"
         style="fill:#fff2d7;fill-opacity:1" />
      <g
         id="g1237"
         style="fill:#fff2d7;fill-opacity:1" />
      <g
         id="g1239"
         style="fill:#fff2d7;fill-opacity:1" />
      <g
         id="g1241"
         style="fill:#fff2d7;fill-opacity:1" />
      <g
         id="g1243"
         style="fill:#fff2d7;fill-opacity:1" />
      <g
         id="g1245"
         style="fill:#fff2d7;fill-opacity:1" />
      <g
         id="g1247"
         style="fill:#fff2d7;fill-opacity:1" />
      <g
         id="g1249"
         style="fill:#fff2d7;fill-opacity:1" />
      <g
         id="g1251"
         style="fill:#fff2d7;fill-opacity:1" />
      <g
         id="g1254"
         style="fill:#fff2d7;fill-opacity:1" />
      <g
         id="g1256"
         style="fill:#fff2d7;fill-opacity:1" />
      <g
         id="g1258"
         style="fill:#fff2d7;fill-opacity:1" />
      <g
         id="g1260"
         style="fill:#fff2d7;fill-opacity:1" />
    </g>
  </g>
</svg>
