<?xml version="1.0" encoding="UTF-8"?>
<svg width="30" height="30" enable-background="new 0 0 512 512" version="1.1" viewBox="0 0 30 30" xml:space="preserve" xmlns="http://www.w3.org/2000/svg"><g transform="matrix(.06 0 0 .06 -.61 -.55)"><path d="m259 507c-138 0.7-252-115-249-255 3-134 114-245 252-243 137 1.7 249 115 246 256-3.4 134-113 243-249 242zm-219-249c0.9 123 98 218 214 220 124 1.8 223-96 223-220 0.1-123-98-218-214-220-120-2.3-222 94-223 220z"/><path d="m413 261c0 22-0.6 44 0.1 66 1.5 42-29 77-69 87-7.8 2-16 3.2-24 3.3-42 0.3-85 0.7-127 0-35-0.6-63-16-82-46-7.2-12-11-25-11-38-0.1-48-0.5-95 0.1-142 0.4-31 16-54 42-70 16-10 34-15 53-15 41-0.1 83-0.5 124 0.1 36 0.5 65 16 84 48 6.7 12 10 24 10 38-0.1 24 0 47 0 71zm-289-0.2v68c0 9.1 1.7 18 6 26 14 26 36 38 65 38 41 0.6 83 0.3 124 0 7.1 0 14-1.2 21-3 28-7.4 51-31 50-66-1-44-0.2-88-0.2-132 0-9.7-1.8-19-6.5-27-14-25-37-37-65-37-41-0.6-82-0.4-124 0-8.2 0.1-17 1.6-24 4-27 8.3-48 32-47 64 0.7 22 0.1 43 0.1 65z"/><path d="m257 183c41-0.1 74 32 74 72-0.1 40-33 72-73 72-41 0.1-74-32-74-72 0-40 33-72 73-72zm0 23c-27 0.1-50 22-50 49s23 49 50 49c28 0 50-22 50-49-0.1-27-23-50-50-49z"/><path d="m355 177c0.2 8.5-6.8 16-15 16-8.5 0.3-16-6.9-16-16-0.1-8.7 6.6-16 15-16 8.5-0.3 16 7 16 16z"/></g></svg>
