<svg xmlns="http://www.w3.org/2000/svg" width="110" height="30" viewBox="0 0 29.104 7.938"><rect style="fill:#161719;fill-opacity:1;stroke:#161719;stroke-width:.218019;stroke-linecap:butt;stroke-linejoin:round;stroke-miterlimit:4;stroke-dasharray:none;stroke-opacity:1" width="28.736" height="7.973" x=".264" y="-.006" ry=".99"/><text xml:space="preserve" style="font-weight:600;font-size:4.15274px;line-height:1.25;font-family:Mulish;-inkscape-font-specification:'Mulish Semi-Bold';word-spacing:0;fill:#fef8ec;fill-opacity:1;stroke-width:.230708" x="9.238" y="5.02"><tspan x="9.238" y="5.02" style="fill:#fef8ec;fill-opacity:1;stroke-width:.230708">Login</tspan></text><g style="fill:#fef8ec;fill-opacity:1"><path d="m438.827 186.347-80.213-88.149c-15.872-15.872-41.728-15.893-57.749.128-5.077 5.077-8.533 11.157-10.325 17.643-15.957-12.224-38.976-11.008-53.675 3.691a40.64 40.64 0 0 0-10.347 17.621c-15.957-12.181-38.976-10.987-53.653 3.712-4.971 4.971-8.384 10.901-10.24 17.216l-37.803-37.803c-15.872-15.872-41.728-15.893-57.749.128-15.893 15.872-15.893 41.728 0 57.621L212.31 323.392l-86.144 13.525c-23.275 3.328-40.832 23.552-40.832 47.083 0 17.643 14.357 32 32 32h201.152c31.339 0 60.8-12.203 82.965-34.368l33.557-33.557c22.144-22.123 34.325-51.563 34.325-82.859 0-29.227-10.837-57.237-30.506-78.869zm-18.902 146.645-33.557 33.557c-18.133 18.133-42.24 28.117-67.883 28.117H117.333c-5.888 0-10.667-4.779-10.667-10.667 0-12.971 9.685-24.128 22.677-25.984l106.987-16.811c3.968-.619 7.232-3.413 8.491-7.232 1.237-3.797.235-8-2.603-10.837L82.155 163.072c-7.573-7.573-7.573-19.904.107-27.605a19.436 19.436 0 0 1 13.739-5.675c4.971 0 9.941 1.899 13.739 5.696l106.731 106.731c4.16 4.16 10.923 4.16 15.083 0a10.716 10.716 0 0 0 3.115-7.552c0-2.731-1.045-5.461-3.136-7.552l-43.584-43.584c-7.573-7.573-7.573-19.883.128-27.584 7.552-7.552 19.904-7.552 27.456 0l43.605 43.605c4.16 4.16 10.923 4.16 15.083 0a10.716 10.716 0 0 0 3.115-7.552c0-2.731-1.045-5.461-3.136-7.552l-22.251-22.251c-7.573-7.573-7.573-19.883.128-27.584 7.552-7.552 19.904-7.552 27.456 0l22.357 22.357c.043.021.021.021.021.021l.021.021.021.021.021.021h.021c.021 0 .021.021.021.021 4.181 3.968 10.795 3.883 14.869-.213 4.16-4.16 4.16-10.923 0-15.083l-.917-.917a19.32 19.32 0 0 1-5.696-13.739c0-5.184 2.005-10.048 5.803-13.845 7.595-7.552 19.883-7.531 27.115-.363l79.872 87.787C439.125 218.389 448 241.301 448 265.216c0 25.6-9.963 49.664-28.075 67.776z" style="fill:#fef8ec;fill-opacity:1" transform="matrix(.00902 0 0 .00902 23.995 3.324)"/><path d="M183.381 109.931C167.851 75.563 133.547 53.333 96 53.333c-52.928 0-96 43.072-96 96 0 37.547 22.229 71.851 56.597 87.403 1.429.64 2.923.939 4.395.939 4.053 0 7.936-2.347 9.728-6.272 2.411-5.376.021-11.691-5.333-14.123-26.752-12.096-44.053-38.763-44.053-67.947 0-41.173 33.493-74.667 74.667-74.667 29.184 0 55.851 17.301 67.947 44.053 2.411 5.376 8.747 7.787 14.101 5.333 5.375-2.431 7.764-8.745 5.332-14.121z" style="fill:#fef8ec;fill-opacity:1" transform="matrix(.00902 0 0 .00902 23.995 3.324)"/></g><rect style="fill:#161719;fill-opacity:1;stroke:#161719;stroke-width:.218019;stroke-linecap:butt;stroke-linejoin:round;stroke-miterlimit:4;stroke-dasharray:none;stroke-opacity:1" width="28.736" height="7.973" x=".264" y="-.006" ry=".99"/><g style="fill:#fef8ec;fill-opacity:1"><path d="m438.827 186.347-80.213-88.149c-15.872-15.872-41.728-15.893-57.749.128-5.077 5.077-8.533 11.157-10.325 17.643-15.957-12.224-38.976-11.008-53.675 3.691a40.64 40.64 0 0 0-10.347 17.621c-15.957-12.181-38.976-10.987-53.653 3.712-4.971 4.971-8.384 10.901-10.24 17.216l-37.803-37.803c-15.872-15.872-41.728-15.893-57.749.128-15.893 15.872-15.893 41.728 0 57.621L212.31 323.392l-86.144 13.525c-23.275 3.328-40.832 23.552-40.832 47.083 0 17.643 14.357 32 32 32h201.152c31.339 0 60.8-12.203 82.965-34.368l33.557-33.557c22.144-22.123 34.325-51.563 34.325-82.859 0-29.227-10.837-57.237-30.506-78.869zm-18.902 146.645-33.557 33.557c-18.133 18.133-42.24 28.117-67.883 28.117H117.333c-5.888 0-10.667-4.779-10.667-10.667 0-12.971 9.685-24.128 22.677-25.984l106.987-16.811c3.968-.619 7.232-3.413 8.491-7.232 1.237-3.797.235-8-2.603-10.837L82.155 163.072c-7.573-7.573-7.573-19.904.107-27.605a19.436 19.436 0 0 1 13.739-5.675c4.971 0 9.941 1.899 13.739 5.696l106.731 106.731c4.16 4.16 10.923 4.16 15.083 0a10.716 10.716 0 0 0 3.115-7.552c0-2.731-1.045-5.461-3.136-7.552l-43.584-43.584c-7.573-7.573-7.573-19.883.128-27.584 7.552-7.552 19.904-7.552 27.456 0l43.605 43.605c4.16 4.16 10.923 4.16 15.083 0a10.716 10.716 0 0 0 3.115-7.552c0-2.731-1.045-5.461-3.136-7.552l-22.251-22.251c-7.573-7.573-7.573-19.883.128-27.584 7.552-7.552 19.904-7.552 27.456 0l22.357 22.357c.043.021.021.021.021.021l.021.021.021.021.021.021h.021c.021 0 .021.021.021.021 4.181 3.968 10.795 3.883 14.869-.213 4.16-4.16 4.16-10.923 0-15.083l-.917-.917a19.32 19.32 0 0 1-5.696-13.739c0-5.184 2.005-10.048 5.803-13.845 7.595-7.552 19.883-7.531 27.115-.363l79.872 87.787C439.125 218.389 448 241.301 448 265.216c0 25.6-9.963 49.664-28.075 67.776z" style="fill:#fef8ec;fill-opacity:1" transform="matrix(.00902 0 0 .00902 23.995 3.324)"/><path d="M183.381 109.931C167.851 75.563 133.547 53.333 96 53.333c-52.928 0-96 43.072-96 96 0 37.547 22.229 71.851 56.597 87.403 1.429.64 2.923.939 4.395.939 4.053 0 7.936-2.347 9.728-6.272 2.411-5.376.021-11.691-5.333-14.123-26.752-12.096-44.053-38.763-44.053-67.947 0-41.173 33.493-74.667 74.667-74.667 29.184 0 55.851 17.301 67.947 44.053 2.411 5.376 8.747 7.787 14.101 5.333 5.375-2.431 7.764-8.745 5.332-14.121z" style="fill:#fef8ec;fill-opacity:1" transform="matrix(.00902 0 0 .00902 23.995 3.324)"/></g><path style="fill:#fef8ec;fill-opacity:1;stroke:none;stroke-width:.218019;stroke-linecap:butt;stroke-linejoin:round;stroke-miterlimit:4;stroke-dasharray:none;stroke-opacity:1" d="M16.754 2.014v.44h.486v-.44Zm-7.171.05V5.02h1.864v-.357H10.01v-2.6Zm3.147.813c-.207 0-.389.044-.544.133a.897.897 0 0 0-.353.378 1.249 1.249 0 0 0-.124.573c0 .224.041.418.124.582.083.16.201.285.353.373.155.089.337.133.544.133.205 0 .384-.044.536-.133a.895.895 0 0 0 .357-.373c.086-.164.13-.358.13-.582 0-.218-.044-.41-.13-.573a.89.89 0 0 0-.357-.378 1.045 1.045 0 0 0-.536-.133Zm2.326 0a.902.902 0 0 0-.49.133.903.903 0 0 0-.328.361 1.203 1.203 0 0 0-.116.544c0 .21.038.393.116.549.08.155.19.276.328.365a.924.924 0 0 0 .49.129c.124 0 .237-.021.336-.062a.726.726 0 0 0 .37-.352v.472c0 .2-.05.349-.15.448-.1.1-.246.15-.44.15-.141 0-.271-.017-.39-.05a1.875 1.875 0 0 1-.374-.154l-.066.328c.238.139.516.208.834.208.33 0 .58-.082.748-.245.169-.16.253-.402.253-.723v-2.05h-.42v.341a.66.66 0 0 0-.22-.255.83.83 0 0 0-.481-.137Zm3.875 0a.851.851 0 0 0-.466.129.691.691 0 0 0-.254.29l-.032-.369h-.399a5.36 5.36 0 0 1 .033.59V5.02h.42V3.828c0-.186.052-.333.158-.444a.576.576 0 0 1 .432-.166c.15 0 .26.041.332.124.072.083.108.215.108.395V5.02h.419v-1.3c0-.562-.25-.843-.751-.843zm-2.148.05V5.02h.42V2.927Zm-4.053.286c.189 0 .334.066.437.196.105.127.157.311.157.552 0 .25-.052.437-.157.565a.528.528 0 0 1-.437.19c-.193 0-.343-.063-.448-.19-.103-.128-.154-.316-.154-.565 0-.24.053-.425.158-.552a.547.547 0 0 1 .444-.196zm2.426 0a.54.54 0 0 1 .44.192c.108.124.162.294.162.51 0 .222-.054.395-.162.52a.545.545 0 0 1-.44.186.575.575 0 0 1-.453-.186c-.108-.125-.162-.298-.162-.52 0-.218.054-.39.162-.514a.575.575 0 0 1 .453-.188z"/></svg>