<svg xmlns="http://www.w3.org/2000/svg" width="110" height="30" viewBox="0 0 29.104 7.938"><rect style="fill:#161719;fill-opacity:1;stroke:#161719;stroke-width:.218019;stroke-linecap:butt;stroke-linejoin:round;stroke-miterlimit:4;stroke-dasharray:none;stroke-opacity:1" width="28.736" height="7.973" x=".264" y="-.042" ry=".99"/><g style="fill:#fef8ec;fill-opacity:1"><path d="m438.827 186.347-80.213-88.149c-15.872-15.872-41.728-15.893-57.749.128-5.077 5.077-8.533 11.157-10.325 17.643-15.957-12.224-38.976-11.008-53.675 3.691a40.64 40.64 0 0 0-10.347 17.621c-15.957-12.181-38.976-10.987-53.653 3.712-4.971 4.971-8.384 10.901-10.24 17.216l-37.803-37.803c-15.872-15.872-41.728-15.893-57.749.128-15.893 15.872-15.893 41.728 0 57.621L212.31 323.392l-86.144 13.525c-23.275 3.328-40.832 23.552-40.832 47.083 0 17.643 14.357 32 32 32h201.152c31.339 0 60.8-12.203 82.965-34.368l33.557-33.557c22.144-22.123 34.325-51.563 34.325-82.859 0-29.227-10.837-57.237-30.506-78.869zm-18.902 146.645-33.557 33.557c-18.133 18.133-42.24 28.117-67.883 28.117H117.333c-5.888 0-10.667-4.779-10.667-10.667 0-12.971 9.685-24.128 22.677-25.984l106.987-16.811c3.968-.619 7.232-3.413 8.491-7.232 1.237-3.797.235-8-2.603-10.837L82.155 163.072c-7.573-7.573-7.573-19.904.107-27.605a19.436 19.436 0 0 1 13.739-5.675c4.971 0 9.941 1.899 13.739 5.696l106.731 106.731c4.16 4.16 10.923 4.16 15.083 0a10.716 10.716 0 0 0 3.115-7.552c0-2.731-1.045-5.461-3.136-7.552l-43.584-43.584c-7.573-7.573-7.573-19.883.128-27.584 7.552-7.552 19.904-7.552 27.456 0l43.605 43.605c4.16 4.16 10.923 4.16 15.083 0a10.716 10.716 0 0 0 3.115-7.552c0-2.731-1.045-5.461-3.136-7.552l-22.251-22.251c-7.573-7.573-7.573-19.883.128-27.584 7.552-7.552 19.904-7.552 27.456 0l22.357 22.357c.043.021.021.021.021.021l.021.021.021.021.021.021h.021c.021 0 .021.021.021.021 4.181 3.968 10.795 3.883 14.869-.213 4.16-4.16 4.16-10.923 0-15.083l-.917-.917a19.32 19.32 0 0 1-5.696-13.739c0-5.184 2.005-10.048 5.803-13.845 7.595-7.552 19.883-7.531 27.115-.363l79.872 87.787C439.125 218.389 448 241.301 448 265.216c0 25.6-9.963 49.664-28.075 67.776z" style="fill:#fef8ec;fill-opacity:1" transform="matrix(.00902 0 0 .00902 24.127 3.414)"/><path d="M183.381 109.931C167.851 75.563 133.547 53.333 96 53.333c-52.928 0-96 43.072-96 96 0 37.547 22.229 71.851 56.597 87.403 1.429.64 2.923.939 4.395.939 4.053 0 7.936-2.347 9.728-6.272 2.411-5.376.021-11.691-5.333-14.123-26.752-12.096-44.053-38.763-44.053-67.947 0-41.173 33.493-74.667 74.667-74.667 29.184 0 55.851 17.301 67.947 44.053 2.411 5.376 8.747 7.787 14.101 5.333 5.375-2.431 7.764-8.745 5.332-14.121z" style="fill:#fef8ec;fill-opacity:1" transform="matrix(.00902 0 0 .00902 24.127 3.414)"/></g><path style="fill:#fef8ec;fill-opacity:1;stroke:none;stroke-width:.218019;stroke-linecap:butt;stroke-linejoin:round;stroke-miterlimit:4;stroke-dasharray:none;stroke-opacity:1" d="M14.387 1.978v.44h.486v-.44Zm-7.637.05v2.957h.424V3.723h.648a.67.67 0 0 1 .299.057c.077.036.137.11.178.22l.37.985h.453l-.37-.976a.578.578 0 0 0-.19-.282.42.42 0 0 0-.197-.08.88.88 0 0 0 .341-.174c.178-.149.266-.353.266-.61 0-.269-.086-.475-.257-.619-.172-.144-.42-.216-.748-.216Zm11.292.195-.42.146v.523h-.407v.324h.407V4.3c0 .235.06.413.179.535.122.12.29.179.502.179a.991.991 0 0 0 .163-.012c.05-.006.099-.017.149-.034v-.34c-.042.011-.08.02-.112.025a.658.658 0 0 1-.108.008.489.489 0 0 1-.183-.033.275.275 0 0 1-.125-.12.525.525 0 0 1-.045-.241V3.216h.577v-.324h-.577zm-10.868.15h.743c.222 0 .384.041.486.124.103.08.154.205.154.374s-.053.296-.158.382c-.102.083-.263.125-.482.125h-.743Zm3.31.469a.974.974 0 0 0-.52.137.962.962 0 0 0-.352.382 1.24 1.24 0 0 0-.125.57c0 .224.043.417.129.58a.875.875 0 0 0 .37.374 1.2 1.2 0 0 0 .572.129c.15 0 .297-.024.44-.07.145-.05.264-.117.358-.2l-.129-.299a1.036 1.036 0 0 1-.66.237c-.219 0-.385-.064-.498-.192-.107-.122-.162-.304-.168-.543h1.492v-.071c0-.216-.037-.4-.112-.552a.802.802 0 0 0-.311-.357.914.914 0 0 0-.486-.125Zm2.205 0a.902.902 0 0 0-.49.133.903.903 0 0 0-.328.361 1.203 1.203 0 0 0-.117.544c0 .21.039.393.117.548.08.155.19.277.328.366a.924.924 0 0 0 .49.128c.124 0 .236-.02.336-.062a.728.728 0 0 0 .37-.352v.473c0 .2-.05.349-.15.448-.1.1-.246.15-.44.15a1.45 1.45 0 0 1-.39-.05 1.872 1.872 0 0 1-.374-.154l-.067.328c.239.139.517.208.836.208.329 0 .578-.082.747-.245.169-.16.253-.402.253-.723v-2.05h-.42v.342a.658.658 0 0 0-.22-.256.83.83 0 0 0-.481-.137Zm3.525 0c-.166 0-.311.028-.436.083a.677.677 0 0 0-.29.22.54.54 0 0 0-.104.328c0 .147.047.27.141.37a.82.82 0 0 0 .42.204l.353.082c.121.03.207.068.257.112.053.042.08.1.08.175a.236.236 0 0 1-.113.208.622.622 0 0 1-.328.07c-.144 0-.279-.02-.403-.058a1.202 1.202 0 0 1-.35-.191l-.128.303c.213.177.503.266.868.266.26 0 .465-.054.615-.162a.523.523 0 0 0 .228-.444.515.515 0 0 0-.14-.374c-.095-.097-.243-.167-.445-.212l-.353-.087a.54.54 0 0 1-.233-.1.242.242 0 0 1-.066-.179.24.24 0 0 1 .112-.211.543.543 0 0 1 .315-.079c.111 0 .22.02.324.062.108.039.214.099.316.179l.129-.295a.947.947 0 0 0-.345-.2 1.26 1.26 0 0 0-.424-.07zm3.667 0a.976.976 0 0 0-.519.137.962.962 0 0 0-.353.382 1.24 1.24 0 0 0-.124.57c0 .224.042.417.128.58.086.164.21.288.37.374a1.2 1.2 0 0 0 .573.129c.15 0 .296-.024.44-.07.144-.05.263-.117.357-.2l-.128-.299a1.036 1.036 0 0 1-.66.237c-.22 0-.386-.064-.499-.192-.106-.122-.16-.304-.167-.543h1.492v-.071c0-.216-.037-.4-.112-.552a.803.803 0 0 0-.312-.357.912.912 0 0 0-.486-.125Zm2.434 0a.727.727 0 0 0-.436.141.606.606 0 0 0-.21.286l-.035-.377h-.399a5.36 5.36 0 0 1 .033.59v1.503h.42V3.818c0-.105.02-.204.058-.295a.512.512 0 0 1 .187-.224.561.561 0 0 1 .328-.088.7.7 0 0 1 .245.042l.008-.382a.747.747 0 0 0-.2-.029zm-7.899.05v2.093h.42V2.892Zm-3.924.262c.177 0 .312.059.403.178.07.09.112.213.127.366H9.916a.723.723 0 0 1 .14-.345c.105-.133.25-.2.436-.2Zm9.398 0c.177 0 .31.059.402.178.07.09.113.213.127.366h-1.106a.723.723 0 0 1 .14-.345c.106-.133.251-.2.437-.2zm-7.102.024a.54.54 0 0 1 .44.192c.109.124.163.294.163.51 0 .222-.054.395-.162.52a.545.545 0 0 1-.44.186.575.575 0 0 1-.453-.187c-.108-.124-.162-.297-.162-.519 0-.219.054-.39.162-.515a.575.575 0 0 1 .452-.187z"/></svg>