<?xml version="1.0" encoding="UTF-8" standalone="no"?>
<svg
   xmlns:dc="http://purl.org/dc/elements/1.1/"
   xmlns:cc="http://creativecommons.org/ns#"
   xmlns:rdf="http://www.w3.org/1999/02/22-rdf-syntax-ns#"
   xmlns:svg="http://www.w3.org/2000/svg"
   xmlns="http://www.w3.org/2000/svg"
   xmlns:sodipodi="http://sodipodi.sourceforge.net/DTD/sodipodi-0.dtd"
   xmlns:inkscape="http://www.inkscape.org/namespaces/inkscape"
   width="15"
   height="18.5"
   viewBox="0 0 3.9687499 4.8947917"
   version="1.1"
   id="svg1331"
   inkscape:version="1.0.2 (e86c870879, 2021-01-15, custom)"
   sodipodi:docname="strike.svg">
  <defs
     id="defs1325" />
  <sodipodi:namedview
     id="base"
     pagecolor="#ffffff"
     bordercolor="#666666"
     borderopacity="1.0"
     inkscape:pageopacity="0.0"
     inkscape:pageshadow="2"
     inkscape:zoom="11.2"
     inkscape:cx="17.750564"
     inkscape:cy="17.702468"
     inkscape:document-units="px"
     inkscape:current-layer="layer1"
     inkscape:document-rotation="0"
     showgrid="false"
     units="px"
     inkscape:window-width="1267"
     inkscape:window-height="728"
     inkscape:window-x="52"
     inkscape:window-y="0"
     inkscape:window-maximized="0" />
  <metadata
     id="metadata1328">
    <rdf:RDF>
      <cc:Work
         rdf:about="">
        <dc:format>image/svg+xml</dc:format>
        <dc:type
           rdf:resource="http://purl.org/dc/dcmitype/StillImage" />
        <dc:title></dc:title>
      </cc:Work>
    </rdf:RDF>
  </metadata>
  <g
     inkscape:label="Layer 1"
     inkscape:groupmode="layer"
     id="layer1">
    <g
       id="g1670"
       transform="matrix(0.01140434,0,0,0.01140434,0.03423679,0.02391131)"
       style="fill:#fff2d7;fill-opacity:1">
      <path
         d="M 325.66797,229.33203 H 16.332031 c -8.832031,0 -16,-7.16797 -16,-16 0,-8.83203 7.167969,-16 16,-16 H 325.66797 c 8.83203,0 16,7.16797 16,16 0,8.83203 -7.16797,16 -16,16 z m 0,0"
         id="path1666"
         style="fill:#fff2d7;fill-opacity:1" />
      <path
         d="m 171,426.66797 c -70.59375,0 -128,-51.4375 -128,-114.66797 0,-8.83203 7.167969,-16 16,-16 8.832031,0 16,7.16797 16,16 0,45.58984 43.07031,82.66797 96,82.66797 52.92969,0 96,-37.07813 96,-82.66797 0,-45.58984 -43.07031,-82.66797 -96,-82.66797 -70.59375,0 -128,-51.43359 -128,-114.66406 C 43,51.433594 100.40625,0 171,0 c 70.59375,0 128,51.433594 128,114.66797 0,8.83203 -7.16797,16 -16,16 -8.83203,0 -16,-7.16797 -16,-16 C 267,69.078125 223.92969,32 171,32 c -52.92969,0 -96,37.078125 -96,82.66797 0,45.58984 43.07031,82.66406 96,82.66406 70.59375,0 128,51.4375 128,114.66797 0,63.23047 -57.40625,114.66797 -128,114.66797 z m 0,0"
         id="path1668"
         style="fill:#fff2d7;fill-opacity:1" />
    </g>
  </g>
</svg>
