<?xml version="1.0" encoding="UTF-8" standalone="no"?>
<svg
   xmlns:dc="http://purl.org/dc/elements/1.1/"
   xmlns:cc="http://creativecommons.org/ns#"
   xmlns:rdf="http://www.w3.org/1999/02/22-rdf-syntax-ns#"
   xmlns:svg="http://www.w3.org/2000/svg"
   xmlns="http://www.w3.org/2000/svg"
   xmlns:sodipodi="http://sodipodi.sourceforge.net/DTD/sodipodi-0.dtd"
   xmlns:inkscape="http://www.inkscape.org/namespaces/inkscape"
   width="20"
   height="20.299999"
   viewBox="0 0 5.2916665 5.3710415"
   version="1.1"
   id="svg1331"
   inkscape:version="1.0.2 (e86c870879, 2021-01-15, custom)"
   sodipodi:docname="trash.svg">
  <defs
     id="defs1325" />
  <sodipodi:namedview
     id="base"
     pagecolor="#ffffff"
     bordercolor="#666666"
     borderopacity="1.0"
     inkscape:pageopacity="0.0"
     inkscape:pageshadow="2"
     inkscape:zoom="11.2"
     inkscape:cx="17.750564"
     inkscape:cy="17.702468"
     inkscape:document-units="px"
     inkscape:current-layer="layer1"
     inkscape:document-rotation="0"
     showgrid="false"
     units="px"
     inkscape:window-width="1267"
     inkscape:window-height="728"
     inkscape:window-x="52"
     inkscape:window-y="0"
     inkscape:window-maximized="0" />
  <metadata
     id="metadata1328">
    <rdf:RDF>
      <cc:Work
         rdf:about="">
        <dc:format>image/svg+xml</dc:format>
        <dc:type
           rdf:resource="http://purl.org/dc/dcmitype/StillImage" />
        <dc:title></dc:title>
      </cc:Work>
    </rdf:RDF>
  </metadata>
  <g
     inkscape:label="Layer 1"
     inkscape:groupmode="layer"
     id="layer1">
    <g
       id="g1636"
       transform="matrix(0.08958601,0,0,0.08958601,-0.30393381,-0.17367505)"
       style="fill:#fff2d7;fill-opacity:1">
      <path
         d="M 50,22 H 18.958 L 33.707,7.251 C 33.895,7.063 34,6.809 34,6.544 34,6.279 33.895,6.024 33.707,5.837 L 30.879,3.009 c -1.134,-1.134 -3.11,-1.134 -4.243,0 l -2.284,2.284 1.414,1.414 2.285,-2.284 c 0.377,-0.378 1.036,-0.378 1.414,0 L 31.587,6.544 7.544,30.586 5.423,28.464 C 5.234,28.276 5.13,28.025 5.13,27.757 5.13,27.489 5.234,27.239 5.423,27.05 L 23.766,8.707 22.352,7.293 20.979,8.666 19.565,7.252 c -1.171,-1.171 -3.074,-1.17 -4.243,0 l -7.071,7.071 c -1.17,1.17 -1.17,3.073 0,4.243 l 1.414,1.414 -5.657,5.657 c -0.567,0.567 -0.879,1.32 -0.879,2.122 0,0.802 0.312,1.555 0.879,2.121 l 2.828,2.829 C 7.024,32.895 7.279,33 7.544,33 c 0.265,0 0.52,-0.105 0.707,-0.293 l 5.318,-5.318 4.211,32.003 C 17.976,60.878 19.254,62 20.754,62 h 22.492 c 1.5,0 2.778,-1.122 2.975,-2.609 L 49.676,33.13 47.693,32.869 44.238,59.129 C 44.172,59.626 43.746,60 43.246,60 H 20.754 c -0.5,0 -0.926,-0.374 -0.991,-0.87 L 15.352,25.606 16.958,24 H 48.86 l -0.641,4.87 1.983,0.261 0.79,-6 C 51.03,22.845 50.943,22.558 50.753,22.341 50.562,22.124 50.288,22 50,22 Z M 9.666,17.151 c -0.39,-0.39 -0.39,-1.024 0,-1.415 l 7.071,-7.071 c 0.389,-0.389 1.024,-0.39 1.415,0 l 1.414,1.414 -8.485,8.485 z"
         id="path1616"
         style="fill:#fff2d7;fill-opacity:1" />
      <path
         d="m 29,31 v 22 c 0,1.654 1.346,3 3,3 1.654,0 3,-1.346 3,-3 V 31 c 0,-1.654 -1.346,-3 -3,-3 -1.654,0 -3,1.346 -3,3 z m 4,0 v 22 c 0,0.551 -0.449,1 -1,1 -0.551,0 -1,-0.449 -1,-1 V 31 c 0,-0.551 0.449,-1 1,-1 0.551,0 1,0.449 1,1 z"
         id="path1618"
         style="fill:#fff2d7;fill-opacity:1" />
      <path
         d="m 21,31 v 22 c 0,1.654 1.346,3 3,3 1.654,0 3,-1.346 3,-3 V 31 c 0,-1.654 -1.346,-3 -3,-3 -1.654,0 -3,1.346 -3,3 z m 4,0 v 22 c 0,0.551 -0.449,1 -1,1 -0.551,0 -1,-0.449 -1,-1 V 31 c 0,-0.551 0.449,-1 1,-1 0.551,0 1,0.449 1,1 z"
         id="path1620"
         style="fill:#fff2d7;fill-opacity:1" />
      <path
         d="m 37,31 v 22 c 0,1.654 1.346,3 3,3 1.654,0 3,-1.346 3,-3 V 31 c 0,-1.654 -1.346,-3 -3,-3 -1.654,0 -3,1.346 -3,3 z m 4,0 v 22 c 0,0.551 -0.449,1 -1,1 -0.551,0 -1,-0.449 -1,-1 V 31 c 0,-0.551 0.449,-1 1,-1 0.551,0 1,0.449 1,1 z"
         id="path1622"
         style="fill:#fff2d7;fill-opacity:1" />
      <path
         d="m 37.243,13.03 -4,-1 c -0.391,-0.097 -0.802,0.049 -1.042,0.37 l -3,4 c -0.178,0.237 -0.242,0.541 -0.173,0.83 0.068,0.289 0.261,0.532 0.526,0.665 l 4,2 C 33.691,19.964 33.845,20 34,20 h 5 c 0.332,0 0.642,-0.165 0.828,-0.439 0.186,-0.274 0.224,-0.624 0.101,-0.932 l -2,-5 c -0.12,-0.298 -0.375,-0.521 -0.686,-0.599 z m -3.007,4.97 -2.717,-1.358 1.883,-2.51 2.859,0.715 1.262,3.153 z"
         id="path1624"
         style="fill:#fff2d7;fill-opacity:1" />
      <path
         d="M 49.854,11.472 48.895,9.553 C 48.693,9.149 48.244,8.931 47.804,9.02 l -5,1 C 42.336,10.113 42,10.523 42,11 v 2 c 0,0.082 0.01,0.163 0.03,0.243 l 1,4 c 0.112,0.449 0.516,0.757 0.969,0.757 0.042,0 0.083,-0.002 0.125,-0.008 l 8,-1 c 0.354,-0.044 0.657,-0.273 0.796,-0.602 0.139,-0.329 0.093,-0.706 -0.121,-0.991 z M 44.755,15.898 44,12.877 V 11.82 l 3.447,-0.689 0.658,1.317 c 0.027,0.054 0.059,0.105 0.095,0.153 l 1.966,2.622 z"
         id="path1626"
         style="fill:#fff2d7;fill-opacity:1" />
      <path
         d="m 44,2 h 2 v 2 h -2 z"
         id="path1628"
         style="fill:#fff2d7;fill-opacity:1" />
      <path
         d="m 52.804,8.207 1.219,1.586 C 56.234,8.095 59.071,7.435 61.804,7.98 l 0.393,-1.961 c -3.304,-0.66 -6.726,0.138 -9.393,2.188 z"
         id="path1630"
         style="fill:#fff2d7;fill-opacity:1" />
      <path
         d="m 57,12 h 2 v 2 h -2 z"
         id="path1632"
         style="fill:#fff2d7;fill-opacity:1" />
      <path
         d="m 48,7 h 2 C 50,5.346 51.346,4 53,4 V 2 c -2.757,0 -5,2.243 -5,5 z"
         id="path1634"
         style="fill:#fff2d7;fill-opacity:1" />
    </g>
  </g>
</svg>
